<?xml version="1.0" encoding="utf-8"?>
<!-- Generator: Adobe Illustrator 23.0.1, SVG Export Plug-In . SVG Version: 6.00 Build 0)  -->
<svg version="1.1" id="logo" xmlns="http://www.w3.org/2000/svg" xmlns:xlink="http://www.w3.org/1999/xlink" x="0px" y="0px"
	 viewBox="0 0 97.2 95.6" style="enable-background:new 0 0 97.2 95.6;" xml:space="preserve">
<style type="text/css">
	.st0{fill:#72B16F;}
	.st1{fill:#FFFFFF;}
</style>
<circle class="st0" cx="48.3" cy="47.8" r="47.8"/>
<g>
	<path class="st1" d="M39.1,28.3v18.1L59.7,25c1-1,1.8-1.8,2.5-2.3s1.6-0.7,2.8-0.7c1.5,0,2.7,0.4,3.6,1.3c0.9,0.9,1.4,2,1.4,3.2
		c0,1.5-0.8,3-2.4,4.5L54.9,43.1l14.7,21c1,1.5,1.8,2.7,2.3,3.8c0.5,1.1,0.8,2.2,0.8,3.2c0,1.2-0.5,2.2-1.4,3
		c-0.9,0.8-2.1,1.3-3.7,1.3c-1.5,0-2.6-0.3-3.6-0.9c-0.9-0.6-1.7-1.5-2.3-2.5c-0.6-1-1.2-2-1.7-2.8l-12.4-19l-8.6,8.2V69
		c0,2.2-0.5,3.8-1.5,4.8c-1,1-2.3,1.6-3.8,1.6c-0.9,0-1.8-0.2-2.6-0.7c-0.8-0.5-1.5-1.1-1.9-1.9c-0.3-0.7-0.5-1.4-0.6-2.3
		c-0.1-0.9-0.1-2.1-0.1-3.8V28.3c0-2.1,0.5-3.7,1.4-4.8c0.9-1.1,2.2-1.6,3.8-1.6c1.6,0,2.8,0.5,3.8,1.6
		C38.6,24.5,39.1,26.1,39.1,28.3z"/>
</g>
</svg>
