<svg version="1.1" xmlns="http://www.w3.org/2000/svg" xmlns:xlink="http://www.w3.org/1999/xlink"><symbol id="affix" viewBox="0 0 512 512" xmlns="http://www.w3.org/2000/svg"><path d="M167.42 306.18l-91.13-91.4c-6.91-6.91-6.91-18.18 0-25.08l21.76-21.76c5.12-5.12 12.54-6.66 19.2-3.84l68.35 27.64c5.89 2.3 12.54 1.54 17.41-2.56l113.92-88.57c8.45-6.66 9.22-18.94 1.53-26.63l-9.47-9.47c-6.91-6.91-6.91-18.18 0-25.09l17.41-17.4c6.91-6.91 18.18-6.91 25.09 0l28.93 28.92 0 0 82.94 82.95 0 0.25 28.93 28.93c6.91 6.91 6.91 18.18 0 25.09l-17.41 17.41c-6.91 6.91-18.18 6.91-25.09 0l-9.47-9.47c-7.42-7.42-19.97-6.66-26.62 1.79l-88.58 114.17c-3.84 4.86-4.86 11.78-2.56 17.41l27.65 68.35c2.56 6.66 1.02 14.08-3.84 19.2l-21.76 21.76c-6.91 6.91-18.18 6.91-25.09 0l-78.59-78.59c-6.91-6.91-18.18-6.91-25.09 0l-102.66 102.66c-6.91 6.91-18.18 6.91-25.08 0l-16.39-16.39c-6.91-6.91-6.91-18.18 0-25.08l115.71-115.2 0 0z" style="fill:currentcolor;"/></symbol><symbol id="alert" viewBox="0 0 512 512" xmlns="http://www.w3.org/2000/svg"><path d="M256 48c-114.69 0-208 93.31-208 208s93.31 208 208 208 208-93.31 208-208-93.31-208-208-208z m0 319.91a20 20 0 1 1 20-20 20 20 0 0 1-20 20z m21.72-201.15l-5.74 122a16 16 0 0 1-32 0l-5.74-121.94v-0.05a21.74 21.74 0 1 1 43.44 0z" style="fill:currentcolor;"/></symbol><symbol id="avatar" viewBox="0 0 512 512" xmlns="http://www.w3.org/2000/svg"><path d="M256 42.67c117.76 0 213.33 95.57 213.33 213.33s-95.57 213.33-213.33 213.33-213.33-95.57-213.33-213.33 95.57-213.33 213.33-213.33z m0 42.66c-94.19 0-170.67 76.48-170.67 170.67s76.48 170.67 170.67 170.67 170.67-76.48 170.67-170.67-76.48-170.67-170.67-170.67z m0 298.67c-42.01 0-80.73-17.43-106.67-46.55 13.08-19.84 60.97-38.78 106.67-38.78s93.59 18.94 106.67 38.78c-25.94 29.12-64.66 46.55-106.67 46.55z m0-234.67c35.41 0 64 28.59 64 64s-28.59 64-64 64-64-28.59-64-64 28.59-64 64-64z" style="fill:currentcolor;stroke:currentcolor;"/></symbol><symbol id="backtop" viewBox="0 0 512 512" xmlns="http://www.w3.org/2000/svg"><path d="M400 96l-288 0c-8.85 0-16 7.15-16 16s7.15 16 16 16l288 0c8.85 0 16-7.15 16-16s-7.15-16-16-16z M267.35 148.7c-1.5-1.5-3.25-2.65-5.2-3.5-3.9-1.6-8.3-1.6-12.2 0-1.95 0.8-3.75 2-5.2 3.5l-128 128c-6.25 6.25-6.25 16.4 0 22.6s16.4 6.25 22.6 0l100.65-100.7 0 217.4c0 8.85 7.15 16 16 16s16-7.15 16-16l0-217.4 100.7 100.7c3.1 3.1 7.2 4.7 11.3 4.7s8.2-1.55 11.3-4.7c6.25-6.25 6.25-16.4 0-22.6l-127.95-128z" style="fill:currentcolor;stroke:currentcolor;"/></symbol><symbol id="badge" viewBox="0 0 512 512" xmlns="http://www.w3.org/2000/svg"><path d="M398.93 188.29c40.71 0 74.36-33.65 74.36-74.36 0-40.71-33.44-74.36-74.36-74.36-40.71 0-74.15 33.65-74.15 74.36 0 40.71 33.44 74.36 74.15 74.36z m-360.22 169.93c0 36.64 3.22 67.07 25.07 88.92 21.86 21.85 52.72 25.29 89.36 25.29h166.49c36.43 0 67.29-3.43 89.15-25.29 21.87-21.85 25.08-52.28 25.08-88.92v-145.93a88.8 88.8 0 0 1-30.43 4.71c-1.5 0.22-2.57 0.22-4.07 0.43v146.57c0 22.28-2.79 44.99-15.64 58.07-13.07 12.85-36.21 15.85-58.29 15.85h-178.28c-22.07 0-45.22-3-58.08-15.85-13.07-13.07-15.85-35.79-15.85-58.07v-175.93c0-22.49 2.78-45.64 15.63-58.5 13.07-13.07 36.43-15.86 58.94-15.86h147.85c0-1.49 0.21-2.78 0.43-4.07-0.22-10.72 1.28-21 4.71-30.43h-148.28c-36 0-66.86 3.43-88.72 25.29-21.85 21.85-25.07 52.5-25.07 88.29z" style="fill:currentcolor;stroke:currentcolor;"/></symbol><symbol id="breadcrumbs" viewBox="0 0 512 512" xmlns="http://www.w3.org/2000/svg"><path d="M82.71 413.54c-5.91 0-9.85-3.94-9.85-9.85v-296.37c0-5.91 3.94-9.85 9.85-9.84h79.75c3.94 0 8.86 1.97 11.82 4.92l114.21 143.75c3.94 4.92 3.94 12.8 0 18.71l-115.2 143.76c-2.95 3.94-7.88 5.91-12.8 5.9l-77.78-0.98z m353.47-167.39l-115.2-142.77c-4.92-5.91-13.78-7.88-20.67-1.96l-22.65 18.7c-6.89 4.92-7.88 14.77-1.97 20.68l93.54 115.2-93.54 116.18c-4.92 5.91-3.94 15.75 1.97 20.68l22.65 18.71c6.89 4.92 14.77 3.94 20.67-1.97l115.2-143.75c3.94-7.88 3.94-14.77 0-19.7z" style="fill:currentcolor;stroke:currentcolor;"/></symbol><symbol id="button" viewBox="0 0 512 512" xmlns="http://www.w3.org/2000/svg"><path d="M416 464h-320a48.05 48.05 0 0 1-48-48v-320a48.05 48.05 0 0 1 48-48h320a48.05 48.05 0 0 1 48 48v320a48.05 48.05 0 0 1-48 48z" style="fill:currentcolor;"/></symbol><symbol id="card" viewBox="0 0 512 512" xmlns="http://www.w3.org/2000/svg"><path d="M445.87 85.33h-379.74c-19.2 0-34.13 14.93-34.13 34.14v51.2h448v-51.2c0-19.2-14.93-34.13-34.13-34.14z m0 352c19.2 0 34.13-14.93 34.13-34.13v-189.87h-448v189.87c0 19.2 14.93 34.13 34.13 34.13h379.74z m-349.87-160h126.93c9.6 0 16 6.4 16 16s-6.4 16-16 16h-129.06c-8.53-1.07-13.87-7.47-13.87-16 0-9.6 6.4-16 16-16z m0 64h64c9.6 0 16 6.4 16 16s-6.4 16-16 16h-66.13c-8.53-1.07-13.87-7.47-13.87-16 0-9.6 6.4-16 16-16z" style="fill:currentcolor;stroke:currentcolor;"/></symbol><symbol id="carousel" viewBox="0 0 512 512" xmlns="http://www.w3.org/2000/svg"><path d="M450.82 25.6h-388.1c-20.48 0-36.35 14.08-36.35 32.51v303.36c0 17.41 15.87 32.51 36.35 32.51h388.1c19.46 0 36.35-15.36 36.35-32.51v-303.36c-0.26-17.41-15.87-32.51-36.35-32.51z m-295.43 56.83c18.69 0 35.33 15.62 35.33 35.59s-15.87 35.58-35.33 35.58c-19.46-0.26-35.33-16.13-35.33-35.58-0.26-20.22 16.38-35.58 35.33-35.59l0 0z m-25.34 270.08c-3.58 0-6.91-1.28-9.99-3.33-6.66-5.63-6.66-13.31-1.02-19.96l68.35-96.77c5.63-5.63 13.31-6.66 19.97-2.31l59.65 42.24 107.01-115.71c5.38-5.63 32-34.56 47.36-2.3v196.86c-0.51 1.28-291.33 1.28-291.33 1.28z M58.37 463.36c0 14.08 11.52 25.6 25.6 25.6s25.6-11.52 25.6-25.6-11.52-25.6-25.6-25.6-25.6 11.52-25.6 25.6l0 0z M173.57 463.36c0 14.08 11.52 25.6 25.6 25.6s25.6-11.52 25.6-25.6l0 0c0-14.08-11.52-25.6-25.6-25.6s-25.6 11.52-25.6 25.6l0 0z M288.77 463.36c0 14.08 11.52 25.6 25.6 25.6s25.6-11.52 25.6-25.6-11.52-25.6-25.6-25.6-25.6 11.52-25.6 25.6l0 0z M403.97 463.36c0 14.08 11.52 25.6 25.6 25.6s25.6-11.52 25.6-25.6-11.52-25.6-25.6-25.6-25.6 11.52-25.6 25.6l0 0z" style="fill:currentcolor;"/></symbol><symbol id="checkbox" viewBox="0 0 512 512" xmlns="http://www.w3.org/2000/svg"><path d="M394.24 71.68h-276.48c-25.34 0-46.08 20.74-46.08 46.08v276.48c0 25.34 20.74 46.08 46.08 46.08h276.48c25.34 0 46.08-20.74 46.08-46.08v-276.48c0-25.34-20.74-46.08-46.08-46.08z m-27.39 152.32l-124.67 124.67c-5.12 5.12-13.31 5.12-18.44 0l-67.07-67.07c-5.12-5.12-5.12-13.31 0-18.43l14.08-14.08c5.12-5.12 13.31-5.12 18.43 0l34.31 34.3c5.12 5.12 13.31 5.12 18.43 0l91.9-91.9c5.12-5.12 13.31-5.12 18.44 0l14.08 14.08c5.63 5.12 5.63 13.31 0.51 18.43z" style="fill:currentcolor;"/></symbol><symbol id="code" viewBox="0 0 512 512" xmlns="http://www.w3.org/2000/svg"><path d="M409.6 415.23h-307.2c-32.26 0-58.62-26.11-58.62-58.62v-201.22c0-32.26 26.11-58.62 58.62-58.62h307.2c32.26 0 58.62 26.11 58.62 58.62v201.22c0 32.26-26.11 58.62-58.62 58.62z" style="fill:none;stroke:currentcolor;stroke-width:30.72;stroke-miterlimit:10;"/><path d="M385.79 360.96h-117.76c-7.17 0-12.8-5.63-12.8-12.8v-8.7c0-7.17 5.63-12.8 12.8-12.8h117.76c7.17 0 12.8 5.63 12.8 12.8v8.7c0 7.17-5.63 12.8-12.8 12.8z M254.98 263.94c0-0.26-0.26-0.51-0.26-0.77 0-0.26 0-0.26-0.26-0.51-0.51-1.02-1.02-2.3-1.53-3.33-0.51-0.77-1.02-1.54-1.79-2.31-1.54-2.05-3.58-3.84-5.89-5.12l-110.59-64c-6.14-3.58-14.34-1.54-17.92 4.87l-4.1 7.17c-3.58 6.14-1.54 14.34 4.86 17.92l90.88 52.48-91.13 52.73c-6.14 3.58-8.19 11.26-4.61 17.41l4.35 7.68c3.58 6.14 11.26 8.19 17.41 4.61l110.59-64c2.3-1.28 4.35-3.33 6.15-5.38 0.77-0.77 1.28-1.54 2.04-2.56v0c3.07-5.12 3.58-11.52 1.8-16.89z" style="fill:currentcolor;"/></symbol><symbol id="collapse" viewBox="0 0 512 512" xmlns="http://www.w3.org/2000/svg"><path d="M359.47 393.39a10.24 10.24 0 0 1 0 14.93l-15.15 15.15a10.67 10.67 0 0 1-14.93 0l-73.39-73.6-73.39 73.6a10.67 10.67 0 0 1-15.14 0l-14.94-15.15a10.24 10.24 0 0 1 0-14.93l88.11-88.54a16 16 0 0 1 11.31-4.69h8.1a16.43 16.43 0 0 1 11.31 4.69z m-118.83-184.75a16.43 16.43 0 0 0 11.31 4.69h8.1a16 16 0 0 0 11.31-4.69l88.11-88.32a10.67 10.67 0 0 0 0-15.15l-14.94-15.14a10.67 10.67 0 0 0-15.14 0l-73.39 73.6-73.39-73.39a10.45 10.45 0 0 0-14.93 0l-15.15 15.15a10.67 10.67 0 0 0 0 15.14z" style="fill:currentcolor;stroke:currentcolor;"/></symbol><symbol id="colors" viewBox="0 0 512 512" xmlns="http://www.w3.org/2000/svg"><path d="M344.72 337.92v61.44c0 45.24-37.49 81.92-83.73 81.92-127.18 0-230.27-100.86-230.27-225.28s103.1-225.28 230.27-225.28c84.68 0 159.91 44.03 198.7 111.37 16.58 28.78 23.6 56.51 21.1 83.19 0 28.27-23.44 51.2-52.34 51.2h-20.94c-34.68 0-62.79 27.5-62.79 61.44z m-98.96 92.16a40.96 40.96 0 1 0 0-81.92 40.96 40.96 0 0 0 0 81.92z m-102.4-81.92a40.96 40.96 0 1 0 0-81.92 40.96 40.96 0 0 0 0 81.92z m-10.24-122.88a40.96 40.96 0 1 0 0-81.92 40.96 40.96 0 0 0 0 81.92z m102.4-61.44a40.96 40.96 0 1 0 0-81.92 40.96 40.96 0 0 0 0 81.92z m112.64 30.72a40.96 40.96 0 1 0 0-81.92 40.96 40.96 0 0 0 0 81.92z" style="fill:currentcolor;stroke:currentcolor;"/></symbol><symbol id="components" viewBox="0 0 512 512" xmlns="http://www.w3.org/2000/svg"><path d="M464 352h-144a16 16 0 0 0-16 16 48 48 0 0 1-96 0 16 16 0 0 0-16-16h-144a16 16 0 0 0-16 16v64a64.07 64.07 0 0 0 64 64h320a64.07 64.07 0 0 0 64-64v-64a16 16 0 0 0-16-16z M479.46 187.88l-31.85-119.43c-6.34-32.86-30.07-52.45-63.61-52.45h-256c-16.8 0-31 4.69-42.1 13.94s-18.24 22.06-21.5 38.46l-31.86 119.48a15.9 15.9 0 0 0-0.54 4.12v48c0 35.29 28.71 80 64 80h320c35.29 0 64-44.71 64-80v-48a15.9 15.9 0 0 0-0.54-4.12z m-38.89-11.88h-120.57a15.92 15.92 0 0 0-16 15.82 48 48 0 1 1-96 0 15.92 15.92 0 0 0-16-15.82h-120.57a2 2 0 0 1-1.93-2.52l26.21-98.48c3.55-18.41 13.81-27 32.29-27h256c18.59 0 28.84 8.53 32.25 26.85l26.25 98.63a2 2 0 0 1-1.93 2.52z" style="fill:currentcolor;"/></symbol><symbol id="dark" viewBox="0 0 512 512" xmlns="http://www.w3.org/2000/svg"><path d="M48 256a208 208 0 1 0 416 0 208 208 0 1 0-416 0z" style="fill:none;stroke:currentcolor;stroke-width:32px;stroke-miterlimit:10;"/><path d="M256 176v160a80 80 0 0 0 0-160z M256 48v128a80 80 0 0 0 0 160v128c-114.88 0-208-93.12-208-208s93.12-208 208-208z" style="fill:currentcolor;"/></symbol><symbol id="date" viewBox="0 0 512 512" xmlns="http://www.w3.org/2000/svg"><path d="M402.75 490.75l-301.16-0.38c-43.3-4.1-77.28-40.65-77.28-85.01l0-259.49c0-47.08 38.3-85.38 85.39-85.38l293.05 0c47.08 0 85.37 38.3 85.36 85.38l0 259.48c0 47.09-38.3 85.4-85.36 85.4l0 0z m-293.07-395.46c-27.9 0-50.6 22.69-50.6 50.59l0 259.48c0 27.9 22.7 50.6 50.6 50.6l293.07 0c27.89 0 50.58-22.7 50.58-50.6l0-259.49c0-27.9-22.69-50.59-50.58-50.6l-293.07 0 0 0.02z m239.74 49.97c-12.8 0-23.19-10.39-23.19-23.19l0-79.34c0-12.8 10.39-23.19 23.19-23.19 12.8 0 23.19 10.39 23.19 23.19l0 79.33c0 12.81-10.38 23.2-23.19 23.2l0 0z m-191.59 0c-12.8 0-23.19-10.39-23.19-23.19l0-79.34c0-12.8 10.39-23.19 23.19-23.19 12.8 0 23.19 10.39 23.19 23.19l0 79.33c0 12.81-10.38 23.2-23.19 23.2l0 0z m109.61 252.13l-22.13 0c-12.8 0-23.19-10.39-23.19-23.19 0-12.8 10.39-23.19 23.19-23.19l22.13 0c12.8 0 23.19 10.39 23.19 23.19 0 12.8-10.39 23.19-23.19 23.19l0 0z m197.96-171.09l-404.78 0c-12.8 0-23.19-10.39-23.19-23.19 0-12.8 10.39-23.19 23.19-23.19l404.79 0c12.8 0 23.19 10.39 23.19 23.19 0 12.8-10.39 23.19-23.2 23.19l0 0z m-301.44 98.22l-22.13 0c-12.8 0-23.19-10.39-23.19-23.2 0-12.8 10.39-23.19 23.19-23.19l22.13 0c12.8 0 23.19 10.39 23.19 23.19 0 12.8-10.39 23.19-23.19 23.2l0 0z m103.48 0l-22.13 0c-12.8 0-23.19-10.39-23.19-23.2 0-12.8 10.39-23.19 23.19-23.19l22.13 0c12.8 0 23.19 10.39 23.19 23.19s-10.39 23.19-23.19 23.2l0 0z m103.2 0l-22.13 0c-12.8 0-23.19-10.39-23.2-23.2 0-12.8 10.39-23.19 23.2-23.19l22.13 0c12.8 0 23.19 10.39 23.19 23.19 0 12.8-10.38 23.19-23.19 23.2l0 0z m-206.68 72.87l-22.13 0c-12.8 0-23.19-10.39-23.19-23.19 0-12.8 10.39-23.19 23.19-23.19l22.13 0c12.8 0 23.19 10.39 23.19 23.19 0 12.8-10.39 23.19-23.19 23.19l0 0z m206.68 0l-22.13 0c-12.8 0-23.19-10.39-23.2-23.19 0-12.8 10.39-23.19 23.2-23.19l22.13 0c12.8 0 23.19 10.39 23.19 23.19 0 12.8-10.38 23.19-23.19 23.19l0 0z" style="fill:currentcolor;stroke:currentcolor;"/></symbol><symbol id="descriptions" viewBox="0 0 512 512" xmlns="http://www.w3.org/2000/svg"><path d="M246.07 128.04h181.53a18.17 18.17 0 1 0 0-36.34h-181.53a18.17 18.17 0 1 0 0 36.34z m181.53 60.97h-159.97a18.17 18.17 0 1 0 0 36.34h159.97a18.17 18.17 0 1 0 0-36.34z m-1.02 97.47h-355.77a18.17 18.17 0 1 0 0 36.34h355.6a18.19 18.19 0 0 0 18.17-18.17 17.83 17.83 0 0 0-17.49-18.17z m0 97.48h-355.77a18.17 18.17 0 1 0 0 36.34h355.6a18.19 18.19 0 0 0 18.17-18.17 17.83 17.83 0 0 0-17.49-18.17c-0.17 0-0.34-0.17-0.51 0z m-296.33-315.01a23.77 23.77 0 0 0-22.08 14.94l-57.9 140.1a16.98 16.98 0 0 0 9.51 22.25 15.91 15.91 0 0 0 6.28 1.18 17.19 17.19 0 0 0 15.96-10.86l13.42-35.16h68.77l14.27 35.33a17.39 17.39 0 0 0 15.96 10.69 17.25 17.25 0 0 0 17.15-17.32 20.67 20.67 0 0 0-1.19-6.45l-57.9-139.93a24.33 24.33 0 0 0-22.25-14.77z m-0.51 44.49l23.1 58.76h-45.85z" style="fill:currentcolor;stroke:currentcolor;"/></symbol><symbol id="divider" viewBox="0 0 512 512" xmlns="http://www.w3.org/2000/svg"><path d="M400 256l-288 0" style="fill:none;stroke:currentcolor;stroke-linecap:round;stroke-linejoin:round;stroke-width:32;"/></symbol><symbol id="drawer" viewBox="0 0 512 512" xmlns="http://www.w3.org/2000/svg"><path d="M479.66 268.7l-32-151.81c-6.18-33.12-29.98-52.89-63.66-52.89h-256c-16.8 0-31 4.69-42.1 13.94s-18.37 22.31-21.58 38.89l-32 151.87a16.65 16.65 0 0 0-0.32 3.3v112a64 64 0 0 0 64 64h320a64 64 0 0 0 64-64v-112a16.65 16.65 0 0 0-0.34-3.3z m-384-145.4c0-0.1 0-0.19 0-0.28 3.55-18.43 13.81-27 32.29-27h256.05c18.61 0 28.87 8.55 32.27 26.91 0 0.13 0.05 0.26 0.07 0.39l26.93 127.88a4 4 0 0 1-3.92 4.82h-119.35a15.92 15.92 0 0 0-16 15.82 48 48 0 1 1-96 0 15.92 15.92 0 0 0-16-15.84h-119.35a4 4 0 0 1-3.92-4.82z M368 160h-224a16 16 0 0 1 0-32h224a16 16 0 0 1 0 32z M384 224h-256a16 16 0 0 1 0-32h256a16 16 0 0 1 0 32z" style="fill:currentcolor;"/></symbol><symbol id="dropdown" viewBox="0 0 512 512" xmlns="http://www.w3.org/2000/svg"><path d="M116 260l144 144 144-144 M116 108l144 144 144-144" style="fill:none;stroke:currentcolor;stroke-width:48;stroke-linecap:round;stroke-linejoin:round;"/></symbol><symbol id="empty" viewBox="0 0 512 512" xmlns="http://www.w3.org/2000/svg"><path d="M479.66 268.7l-32-151.81c-6.18-33.12-29.98-52.89-63.66-52.89h-256c-16.8 0-31 4.69-42.1 13.94s-18.37 22.31-21.58 38.89l-32 151.87a16.65 16.65 0 0 0-0.32 3.3v112a64 64 0 0 0 64 64h320a64 64 0 0 0 64-64v-112a16.65 16.65 0 0 0-0.34-3.3z m-384-145.4c0-0.1 0-0.19 0-0.28 3.55-18.43 13.81-27 32.29-27h256.05c18.61 0 28.87 8.55 32.27 26.91 0 0.13 0.05 0.26 0.07 0.39l26.93 127.88a4 4 0 0 1-3.92 4.82h-119.35a15.92 15.92 0 0 0-16 15.82 48 48 0 1 1-96 0 15.92 15.92 0 0 0-16-15.84h-119.35a4 4 0 0 1-3.92-4.82z" style="fill:currentcolor;"/></symbol><symbol id="form" viewBox="0 0 512 512" xmlns="http://www.w3.org/2000/svg"><path d="M400 48l-288 0c-26.46 0-48 21.54-48 48l0 320c0 26.46 21.54 48 48 48l288 0c26.46 0 48-21.54 48-48l0-320c0-26.46-21.54-48-48-48z m-63.5 208.43c0 8.83-7.15 16-16 16l-176.61 0c-8.83 0-16-7.17-16-16s7.17-16 16-16l176.61 0c8.85 0 16 7.17 16 16z m-80.95-128.43c13.26 0 24 10.75 24 24 0 13.26-10.74 24.02-24 24.02s-24-10.75-24-24.02c0-13.25 10.74-24 24-24z m-103.69 0c13.26 0 24 10.75 24 24 0 13.26-10.74 24.02-24 24.02s-24-10.75-24-24.02c0-13.25 10.74-24 24-24z m215.58 239.76l-223.62 0c-8.83 0-16-7.15-16-16s7.17-16 16-16l223.62 0c8.85 0 16 7.15 16 16s-7.15 16-16 16z m-7.82-191.74c-13.26 0-24-10.75-24-24.02 0-13.25 10.74-24 24-24s24 10.75 24 24c0 13.26-10.74 24.02-24 24.02z" style="fill:currentcolor;stroke:currentcolor;"/></symbol><symbol id="grid" viewBox="0 0 512 512" xmlns="http://www.w3.org/2000/svg"><path d="M185 240h-98c-30.4 0-55-24.6-55-55v-98c0-30.4 24.6-55 55-55h98c30.4 0 55 24.6 55 55v98c0 30.4-24.6 55-55 55z M425 240h-98c-30.4 0-55-24.6-55-55v-98c0-30.4 24.6-55 55-55h98c30.4 0 55 24.6 55 55v98c0 30.4-24.6 55-55 55z M185 480h-98c-30.4 0-55-24.6-55-55v-98c0-30.4 24.6-55 55-55h98c30.4 0 55 24.6 55 55v98c0 30.4-24.6 55-55 55z M425 480h-98c-30.4 0-55-24.6-55-55v-98c0-30.4 24.6-55 55-55h98c30.4 0 55 24.6 55 55v98c0 30.4-24.6 55-55 55z" style="fill:currentcolor;"/></symbol><symbol id="icons" viewBox="0 0 512 512" xmlns="http://www.w3.org/2000/svg"><path d="M461.5 141.8c-6.7-15.55-16.3-29.45-28.45-41.4-12.15-11.9-26.25-21.2-42-27.75-16.25-6.75-33.45-10.15-51.2-10.15-24.65 0-48.7 6.75-69.6 19.5-5 3.05-9.75 6.4-14.25 10.05-4.5-3.65-9.25-7-14.25-10.05-20.9-12.75-44.95-19.5-69.6-19.5-17.75 0-34.95 3.4-51.2 10.15-15.7 6.5-29.85 15.85-42 27.75-12.2 11.95-21.75 25.85-28.45 41.4-6.95 16.15-10.5 33.3-10.5 50.95 0 16.65 3.4 34 10.15 51.65 5.65 14.75 13.75 30.05 24.1 45.5 16.4 24.45 38.95 49.95 66.95 75.8 46.4 42.85 92.35 72.45 94.3 73.65l11.85 7.6c5.25 3.35 12 3.35 17.25 0l11.85-7.6c1.95-1.25 47.85-30.8 94.3-73.65 28-25.85 50.55-51.35 66.95-75.8 10.35-15.45 18.5-30.75 24.1-45.5 6.75-17.65 10.15-35 10.15-51.65 0.05-17.65-3.5-34.8-10.45-50.95z" style="fill:currentcolor;"/></symbol><symbol id="images" viewBox="0 0 512 512" xmlns="http://www.w3.org/2000/svg"><path d="M450.29 112h-308.29c-34 0-62 27.51-62 61.33v245.34c0 33.82 28 61.33 62 61.33h308c34 0 62-26.18 62-60v-246.67c0-33.82-27.68-61.33-61.71-61.33z m-77.15 61.34a46 46 0 1 1-46.28 46 46.19 46.19 0 0 1 46.28-46.01z m-231.55 276c-17 0-29.86-13.75-29.86-30.66v-64.83l90.46-80.79a46.54 46.54 0 0 1 63.44 1.83l62.64 62.11-113 112.33z m338.41-30.67a30.67 30.67 0 0 1-30.71 30.66h-190.29l117.08-116.33a46.24 46.24 0 0 1 59.44-0.16l44.48 37.75z M384 32h-320a64 64 0 0 0-64 64v256a64.11 64.11 0 0 0 48 62v-262a72 72 0 0 1 72-72h326a64.11 64.11 0 0 0-62-48z" style="fill:currentcolor;"/></symbol><symbol id="input-number" viewBox="0 0 512 512" xmlns="http://www.w3.org/2000/svg"><path d="M80.64 74.5h350.98c20.48 0 37.12 16.64 37.12 37.12v280.06c0 20.48-16.64 37.12-37.12 37.12h-350.98c-20.48 0-37.12-16.64-37.12-37.12v-280.32c0-20.48 16.64-36.86 37.12-36.86z" style="fill:none;stroke:currentcolor;stroke-width:30.72;stroke-miterlimit:10;"/><path d="M85.5 299.78h13.83c3.07 0 5.38-2.56 5.37-5.38v-79.62c0-4.1-4.35-6.66-7.93-4.6l-13.57 6.91c-3.84 1.79-8.19-1.02-8.19-5.12v-3.84c0-2.3 1.28-4.1 3.07-5.12l25.09-12.55c0.51-0.26 1.54-0.51 2.56-0.51h9.21c3.07 0 5.38 2.56 5.38 5.38v99.07c0 3.07 2.56 5.38 5.38 5.38h13.56c3.07 0 5.38 2.56 5.38 5.37v3.07c0 3.07-2.56 5.38-5.38 5.38h-53.76c-3.07 0-5.38-2.56-5.37-5.38v-3.07c0-3.07 2.3-5.38 5.37-5.37z M196.86 299.52h36.1c3.07 0 5.38 2.56 5.38 5.38v3.07c0 3.07-2.56 5.38-5.38 5.37h-60.16c-3.07 0-5.38-2.56-5.38-5.37v-6.66c0-1.28 0.51-2.56 1.28-3.84 9.22-10.5 17.41-19.46 24.32-27.39 7.17-8.45 12.29-14.08 15.11-17.66 5.38-6.91 8.7-12.29 10.75-16.39 1.79-4.1 2.82-8.45 2.82-12.8 0-6.91-1.79-12.29-5.64-16.38-3.84-4.1-9.22-5.89-15.61-5.89-4.61 0-9.73 1.02-15.11 2.82-2.82 1.02-5.63 2.3-8.7 3.84-3.84 1.79-7.94-1.02-7.94-4.61v-4.1c0-2.3 1.28-4.1 3.08-5.12 4.35-1.79 8.45-3.58 12.8-4.61 5.38-1.28 10.5-2.3 15.36-2.3 11.26 0 20.74 3.07 27.64 9.73 6.91 6.66 10.5 15.1 10.5 25.34 0 5.38-1.28 10.75-3.58 16.13-2.3 5.38-5.89 11.26-11.27 17.66-2.82 3.58-7.17 8.45-12.8 15.11-4.1 4.61-9.98 11.26-17.41 19.45-3.07 3.58-1.02 9.22 3.84 9.22z M323.07 242.69c-3.07 2.3-3.58 6.91 0 9.21 2.82 1.79 5.38 4.35 7.43 6.92 4.1 5.63 5.89 12.54 5.88 20.73 0 11.26-3.84 20.48-11 27.14-7.17 6.66-17.41 9.73-30.21 9.73-5.38 0-11.01-0.51-16.39-1.54-4.35-1.02-8.45-1.79-12.8-3.07-2.3-0.51-3.84-2.82-3.84-5.12v-4.1c0-3.84 4.1-6.66 7.43-5.12 2.82 1.28 5.38 2.3 8.19 2.82 5.12 1.54 10.5 2.3 15.36 2.3 8.7 0 15.36-2.3 20.22-6.4 4.61-4.1 6.91-9.98 6.92-17.92 0-7.17-2.3-12.8-6.92-17.41-4.61-4.35-11.01-6.4-18.94-6.4h-6.66c-3.07 0-5.38-2.56-5.37-5.37v-2.82c0-3.07 2.56-5.38 5.37-5.37h6.66c7.17 0 12.8-1.54 16.9-5.12 4.1-3.58 5.89-8.19 5.88-14.08 0-6.4-1.79-11.26-5.63-14.85-3.84-3.58-9.22-5.12-16.13-5.12-4.61 0-9.47 0.51-14.33 1.53-2.82 0.51-5.38 1.28-8.45 2.31-3.58 1.28-7.17-1.28-7.17-5.12v-3.59c0-2.56 1.54-4.61 4.1-5.37 4.61-1.28 8.7-2.3 12.8-2.82 5.12-1.02 9.47-1.28 13.31-1.28 11.26 0 20.48 3.07 27.39 9.22s10.5 14.08 10.5 24.32c0 6.91-1.79 12.54-5.38 16.89-1.28 1.79-2.82 3.33-5.12 4.87z M432.13 315.39h-71.43c-2.3 0-4.35-2.05-4.35-4.35v-6.14c0-2.3 2.05-4.35 4.35-4.36h71.43c2.3 0 4.35 2.05 4.35 4.36v6.14c0 2.3-2.05 4.35-4.35 4.35z" style="fill:currentcolor;"/></symbol><symbol id="input" viewBox="0 0 512 512" xmlns="http://www.w3.org/2000/svg"><path d="M80.64 74.5h350.98c20.48 0 37.12 16.64 37.12 37.12v280.06c0 20.48-16.64 37.12-37.12 37.12h-350.98c-20.48 0-37.12-16.64-37.12-37.12v-280.32c0-20.48 16.64-36.86 37.12-36.86z" style="fill:none;stroke:currentcolor;stroke-width:30.72;stroke-miterlimit:10;"/><path d="M108.54 339.97v-2.56c0-4.35 3.33-7.68 7.68-7.68h22.28c4.35 0 7.68-3.33 7.68-7.68v-131.84c0-4.35-3.33-7.68-7.68-7.68h-22.28c-4.35 0-7.68-3.33-7.68-7.68v-2.56c0-4.35 3.33-7.68 7.68-7.68h80.13c4.35 0 7.68 3.33 7.68 7.68v2.56c0 4.35-3.33 7.68-7.68 7.68h-22.01c-4.35 0-7.68 3.33-7.68 7.68v131.58c0 4.35 3.33 7.68 7.68 7.68h22.01c4.35 0 7.68 3.33 7.68 7.68v2.56c0 4.35-3.33 7.68-7.68 7.68h-80.13c-4.35 0.26-7.68-3.33-7.68-7.42z" style="fill:currentcolor;"/></symbol><symbol id="language" viewBox="0 0 512 512" xmlns="http://www.w3.org/2000/svg"><path d="M48 112l288 0 M192 64l0 48 M272 448l96-224 96 224 M301.5 384l133 0 M281.3 112s-24.3 94-82.3 165-119 107-119 107 M256 336s-35-27-72-75-56-85-56-85" style="fill:none;stroke:currentcolor;stroke-linecap:round;stroke-linejoin:round;stroke-width:32;"/></symbol><symbol id="layout" viewBox="0 0 512 512" xmlns="http://www.w3.org/2000/svg"><path d="M464 426.67c0 20.27-17.07 37.33-37.33 37.33h-224v-245.33h261.33v208z m-293.33-208v245.33h-85.34c-20.27 0-37.33-17.07-37.33-37.33v-208h122.67z m-122.67-133.34c0-20.27 17.07-37.33 37.33-37.33h341.34c20.27 0 37.33 17.07 37.33 37.33v101.34h-416v-101.34z" style="fill:currentcolor;stroke:currentcolor;"/></symbol><symbol id="loader" viewBox="0 0 512 512" xmlns="http://www.w3.org/2000/svg"><path d="M456.7 242.27l-26.08-4.2a8 8 0 0 1-6.6-6.82c-0.5-3.2-1-6.41-1.7-9.51a8.08 8.08 0 0 1 3.9-8.62l23.09-12.82a8.05 8.05 0 0 0 3.9-9.92l-4-11a7.94 7.94 0 0 0-9.4-5l-25.89 5a8 8 0 0 1-8.59-4.11q-2.25-4.2-4.8-8.41a8.16 8.16 0 0 1 0.7-9.52l17.29-19.94a8 8 0 0 0 0.3-10.62l-7.49-9a7.88 7.88 0 0 0-10.5-1.51l-22.69 13.63a8 8 0 0 1-9.39-0.9c-2.4-2.11-4.9-4.21-7.4-6.22a8 8 0 0 1-2.5-9.11l9.4-24.75a8 8 0 0 0-3.25-10.15l-10.2-5.91a8 8 0 0 0-10.39 2.21l-16.64 20.84a7.15 7.15 0 0 1-8.5 2.5s-5.6-2.3-9.8-3.71a8 8 0 0 1-5.47-7.7l0.4-26.45a8.07 8.07 0 0 0-6.6-8.42l-11.59-2a8.07 8.07 0 0 0-9.1 5.61l-8.6 25.05a8 8 0 0 1-7.79 5.41h-9.8a8.07 8.07 0 0 1-7.79-5.41l-8.6-25.05a8.07 8.07 0 0 0-9.1-5.61l-11.59 2a8.07 8.07 0 0 0-6.6 8.42l0.4 26.45a8 8 0 0 1-5.49 7.71c-2.3 0.9-7.3 2.81-9.7 3.71-2.8 1-6.1 0.2-8.8-2.91l-16.51-20.34a8 8 0 0 0-10.39-2.17l-10.2 5.91a7.94 7.94 0 0 0-3.3 10.09l9.4 24.75a8.06 8.06 0 0 1-2.5 9.11c-2.5 2-5 4.11-7.4 6.22a8 8 0 0 1-9.39 0.9l-22.36-13.84a8 8 0 0 0-10.5 1.51l-7.49 9a8 8 0 0 0 0.3 10.62l17.29 19.94a8 8 0 0 1 0.7 9.52q-2.55 4-4.8 8.41a8.11 8.11 0 0 1-8.59 4.11l-25.89-5a8 8 0 0 0-9.4 5l-4 11a8.05 8.05 0 0 0 3.9 9.92l23.06 12.83a7.94 7.94 0 0 1 3.9 8.62c-0.6 3.2-1.2 6.31-1.7 9.51a8.08 8.08 0 0 1-6.6 6.82l-26.08 4.2a8.09 8.09 0 0 0-7.1 7.92v11.72a7.86 7.86 0 0 0 7.1 7.92l26.08 4.2a8 8 0 0 1 6.6 6.82c0.5 3.2 1 6.41 1.7 9.51a8.08 8.08 0 0 1-3.9 8.62l-23.09 12.84a8.05 8.05 0 0 0-3.9 9.92l4 11a7.94 7.94 0 0 0 9.4 5l25.89-5a8 8 0 0 1 8.59 4.11q2.25 4.2 4.8 8.41a8.16 8.16 0 0 1-0.7 9.52l-17.29 19.96a8 8 0 0 0-0.3 10.62l7.49 9a7.88 7.88 0 0 0 10.5 1.51l22.69-13.63a8 8 0 0 1 9.39 0.9c2.4 2.11 4.9 4.21 7.4 6.22a8 8 0 0 1 2.5 9.11l-9.4 24.75a8 8 0 0 0 3.3 10.12l10.2 5.91a8 8 0 0 0 10.39-2.21l16.79-20.64c2.1-2.6 5.5-3.7 8.2-2.6 3.4 1.4 5.7 2.2 9.9 3.61a8 8 0 0 1 5.49 7.71l-0.4 26.45a8.07 8.07 0 0 0 6.6 8.42l11.59 2a8.07 8.07 0 0 0 9.1-5.61l8.6-25a8 8 0 0 1 7.79-5.41h9.8a8.07 8.07 0 0 1 7.79 5.41l8.6 25a8.07 8.07 0 0 0 9.1 5.61l11.59-2a8.07 8.07 0 0 0 6.6-8.42l-0.4-26.45a8 8 0 0 1 5.49-7.71c4.2-1.41 7-2.51 9.6-3.51s5.8-1 8.3 2.1l17 20.94a8 8 0 0 0 10.43 2.18l10.2-5.91a7.93 7.93 0 0 0 3.3-10.12l-9.4-24.75a8.08 8.08 0 0 1 2.5-9.12c2.5-2 5-4.1 7.4-6.21a8 8 0 0 1 9.39-0.9l22.61 13.67a8 8 0 0 0 10.5-1.51l7.49-9a8 8 0 0 0-0.3-10.62l-17.29-19.94a8 8 0 0 1-0.7-9.52q2.55-4.05 4.8-8.41a8.11 8.11 0 0 1 8.59-4.11l25.89 5a8 8 0 0 0 9.4-5l4-11a8.05 8.05 0 0 0-3.9-9.92l-23.09-12.82a7.94 7.94 0 0 1-3.9-8.62c0.6-3.2 1.2-6.31 1.7-9.51a8.08 8.08 0 0 1 6.6-6.82l26.08-4.2a8.09 8.09 0 0 0 7.1-7.92v-11.74a8.25 8.25 0 0 0-7.27-7.73z m-200.7-130.27a143.82 143.82 0 0 1 139.38 108.12 16 16 0 0 1-15.53 19.88l-105.24 0a16 16 0 0 1-13.91-8.09l-52.1-91.71a16 16 0 0 1 9.85-23.39 146.94 146.94 0 0 1 37.55-4.81z m-144 144a144 144 0 0 1 43.65-103.41 16 16 0 0 1 25.17 3.47l52.24 91.94a16 16 0 0 1 0 15.87l-52.67 91.7a16 16 0 0 1-25.18 3.36 143.94 143.94 0 0 1-43.21-102.93z m144 144a146.9 146.9 0 0 1-38.19-4.95 16 16 0 0 1-9.76-23.44l52.58-91.55a16 16 0 0 1 13.88-8h105.39a16 16 0 0 1 15.52 19.88 143.84 143.84 0 0 1-139.42 108.06z" style="fill:currentcolor;"/></symbol><symbol id="loading" viewBox="0 0 512 512" xmlns="http://www.w3.org/2000/svg"><path d="M433.66 327.17h-355.32c-17.66 0-32-14.34-32-32v0c0-17.66 14.34-32 32-32h355.58c17.66 0 32 14.34 32 32v0c-0.26 17.66-14.59 32-32.26 32z M229.89 216.06l-2.82-2.04c-1.54-1.02-1.79-3.07-0.77-4.61l76.29-107.27c1.02-1.54 3.07-1.79 4.61-0.76l2.82 2.04c1.54 1.02 1.79 3.07 0.76 4.61l-76.28 107.27c-1.02 1.54-3.07 1.79-4.61 0.76z" style="fill:currentcolor;"/><path d="M220.42 120.32a15.1 15.1 0 1 0 30.2 0 15.1 15.1 0 1 0-30.2 0z M282.37 197.89a15.1 15.1 0 1 0 30.21 0 15.1 15.1 0 1 0-30.21 0z" style="fill:none;stroke:currentcolor;stroke-width:10.24;stroke-miterlimit:10;"/></symbol><symbol id="logs" viewBox="0 0 512 512" xmlns="http://www.w3.org/2000/svg"><path d="M368 32h-224a64.07 64.07 0 0 0-64 64v320a64.07 64.07 0 0 0 64 64h224a64.07 64.07 0 0 0 64-64v-320a64.07 64.07 0 0 0-64-64z m-112 272h-80a16 16 0 0 1 0-32h80a16 16 0 0 1 0 32z m80-80h-160a16 16 0 0 1 0-32h160a16 16 0 0 1 0 32z m0-80h-160a16 16 0 0 1 0-32h160a16 16 0 0 1 0 32z" style="fill:currentcolor;"/></symbol><symbol id="menu" viewBox="0 0 512 512" xmlns="http://www.w3.org/2000/svg"><path d="M88 152l336 0 M88 256l336 0 M88 360l336 0" style="fill:none;stroke:currentcolor;stroke-linecap:round;stroke-miterlimit:10;stroke-width:48;"/></symbol><symbol id="message" viewBox="0 0 512 512" xmlns="http://www.w3.org/2000/svg"><path d="M398 81.84a227.4 227.4 0 0 0-142.18-49.84c-60.92 0-117.82 23.47-160.36 66.09-41.11 41.24-63.64 95.69-63.46 153.28a215.66 215.66 0 0 0 35.65 118.76l0.19 0.27c0.28 0.41 0.57 0.82 0.86 1.22s0.65 0.92 0.73 1.05l0.22 0.4c1.13 2 2 4.44 1.23 6.9l-18.42 66.66a29.13 29.13 0 0 0-1.2 7.63 25.69 25.69 0 0 0 25.57 25.74 29.44 29.44 0 0 0 10.45-2.29l67.49-24.36 0.85-0.33a14.75 14.75 0 0 1 5.8-1.15 15.12 15.12 0 0 1 5.37 1c1.62 0.63 16.33 6.26 31.85 10.6 12.9 3.6 39.74 9 60.77 9 59.65 0 115.35-23.1 156.83-65.06 41.12-41.64 63.76-96.99 63.76-155.92a213.5 213.5 0 0 0-4.78-45c-10.34-48.62-37.76-92.9-77.22-124.65z m-310.52 298.16h0z m72.52-92a32 32 0 1 1 32-32 32 32 0 0 1-32 32z m96 0a32 32 0 1 1 32-32 32 32 0 0 1-32 32z m96 0a32 32 0 1 1 32-32 32 32 0 0 1-32 32z" style="fill:currentcolor;"/></symbol><symbol id="modal" viewBox="0 0 512 512" xmlns="http://www.w3.org/2000/svg"><path d="M431.36 67.07h-350.72c-22.27 0-40.45 18.18-40.45 40.45v296.96c0 22.27 18.18 40.45 40.45 40.45h350.98c22.27 0 40.45-18.18 40.44-40.45v-296.96c0-22.27-18.18-40.45-40.7-40.45z m-182.27 90.11c-14.85 0-26.88-12.03-26.88-26.88 0-14.85 12.03-26.88 26.88-26.88 14.85 0 26.88 12.03 26.88 26.88 0 14.59-12.03 26.88-26.88 26.88z m80.89 0c-14.85 0-26.88-12.03-26.88-26.88 0-14.85 12.03-26.88 26.88-26.88 14.85 0 26.88 12.03 26.88 26.88 0.26 14.59-12.03 26.88-26.88 26.88z m80.9 0c-14.85 0-26.88-12.03-26.88-26.88 0-14.85 12.03-26.88 26.88-26.88 14.85 0 26.88 12.03 26.88 26.88 0.26 14.59-11.78 26.88-26.88 26.88z" style="fill:currentcolor;"/></symbol><symbol id="notice" viewBox="0 0 512 512" xmlns="http://www.w3.org/2000/svg"><path d="M440.08 341.31c-1.66-2-3.29-4-4.89-5.93-22-26.61-35.31-42.67-35.31-118 0-39-9.33-71-27.72-95-13.56-17.73-31.89-31.18-56.05-41.12a3 3 0 0 1-0.82-0.67c-8.69-29.1-32.47-48.59-59.29-48.59s-50.59 19.49-59.28 48.56a3.13 3.13 0 0 1-0.81 0.65c-56.38 23.21-83.78 67.74-83.78 136.14 0 75.36-13.29 91.42-35.31 118-1.6 1.93-3.23 3.89-4.89 5.93a35.16 35.16 0 0 0-4.65 37.62c6.17 13 19.32 21.07 34.33 21.07h308.89c14.94 0 28-8.06 34.19-21a35.17 35.17 0 0 0-4.61-37.66z M256 480a80.06 80.06 0 0 0 70.44-42.13 4 4 0 0 0-3.54-5.87h-133.78a4 4 0 0 0-3.55 5.87 80.06 80.06 0 0 0 70.43 42.13z" style="fill:currentcolor;"/></symbol><symbol id="pagination" viewBox="0 0 512 512" xmlns="http://www.w3.org/2000/svg"><path d="M85.33 85.33a64 64 0 0 0-64 64v213.34a64 64 0 0 0 64 64h149.34v-341.34h-149.34z m192 341.34h149.34a64 64 0 0 0 64-64v-213.34a64 64 0 0 0-64-64h-149.34v341.34z m-91.58-271.09a21.33 21.33 0 0 1 0 30.17l-70.25 70.25 70.25 70.25a21.33 21.33 0 1 1-30.17 30.17l-85.33-85.34a21.33 21.33 0 0 1 0-30.16l85.33-85.34a21.33 21.33 0 0 1 30.17 0z m140.5 30.17a21.33 21.33 0 0 1 30.17-30.17l85.33 85.34a21.33 21.33 0 0 1 0 30.16l-85.33 85.34a21.33 21.33 0 0 1-30.17-30.17l70.25-70.25-70.25-70.25z" style="fill:currentcolor;stroke:currentcolor;"/></symbol><symbol id="popconfirm" viewBox="0 0 512 512" xmlns="http://www.w3.org/2000/svg"><path d="M408 48h-304c-39.7 0-72 32.3-72 72v192c0 39.7 32.3 72 72 72h24v64c0 8.8 7.2 16 16 16 3.7 0 7.4-1.3 10.3-3.7l91.5-76.3h162.2c39.7 0 72-32.3 72-72v-192c0-39.7-32.3-72-72-72z m0.2 193l-74.8 74.8c-3.1 3.1-8 3.1-11.1 0l-40.2-40.2c-3.1-3.1-3.1-8 0-11.1l8.4-8.4c3.1-3.1 8-3.1 11.1 0l20.6 20.6c3.1 3.1 8 3.1 11.1 0l55.1-55.1c3.1-3.1 8-3.1 11.1 0l8.4 8.4c3.3 3 3.3 7.9 0.3 11z" style="fill:currentcolor;"/></symbol><symbol id="poptip" viewBox="0 0 512 512" xmlns="http://www.w3.org/2000/svg"><path d="M408 48h-304a72.08 72.08 0 0 0-72 72v192a72.08 72.08 0 0 0 72 72h24v64a16 16 0 0 0 26.25 12.29l91.49-76.29h162.26a72.08 72.08 0 0 0 72-72v-192a72.08 72.08 0 0 0-72-72z m-248 200a32 32 0 1 1 32-32 32 32 0 0 1-32 32z m96 0a32 32 0 1 1 32-32 32 32 0 0 1-32 32z m96 0a32 32 0 1 1 32-32 32 32 0 0 1-32 32z" style="fill:currentcolor;"/></symbol><symbol id="progress" viewBox="0 0 512 512" xmlns="http://www.w3.org/2000/svg"><path d="M414.25 192h-317.5c-35.25 0-63.9 28.6-63.9 63.9v0.2c0 35.15 28.5 63.65 63.65 63.65h317.7c35.3 0 63.9-28.6 63.9-63.9 0.05-35.25-28.6-63.85-63.85-63.85z m33.8 63.95c0 17.6-14.4 32.05-32.05 32.05h-105c5.45-9.35 8.55-20.25 8.55-31.85 0-11.75-3.2-22.8-8.75-32.25h105.2c17.65 0 32.05 14.45 32.05 32.05z" style="fill:currentcolor;stroke:currentcolor;"/></symbol><symbol id="radio" viewBox="0 0 512 512" xmlns="http://www.w3.org/2000/svg"><path d="M256 32.99c-122.96 0-223.01 100.05-223.01 223.01 0 122.98 100.03 223.01 223.01 223.01 122.98 0 223.01-100.03 223.01-223.01 0-122.96-100.03-223.01-223.01-223.01z m0 303.01c-44.11 0-80-35.89-80-80s35.89-80 80-80 80 35.89 80 80-35.89 80-80 80z" style="fill:currentcolor;stroke:currentcolor;"/></symbol><symbol id="rate" viewBox="0 0 512 512" xmlns="http://www.w3.org/2000/svg"><path d="M454.05 176.55l-126.95-18.45-56.75-115.05c-1.55-3.15-4.1-5.7-7.25-7.25-7.9-3.9-17.5-0.65-21.45 7.25l-56.75 115.05-126.95 18.45c-3.5 0.5-6.7 2.15-9.15 4.65-6.15 6.35-6.05 16.45 0.3 22.65l91.85 89.55-21.7 126.45c-0.6 3.45-0.05 7.05 1.6 10.15 4.1 7.8 13.8 10.85 21.6 6.7l113.55-59.7 113.55 59.7c3.1 1.65 6.7 2.2 10.15 1.6 8.7-1.5 14.55-9.75 13.05-18.45l-21.7-126.45 91.85-89.55c2.5-2.45 4.15-5.65 4.65-9.15 1.35-8.75-4.75-16.85-13.5-18.15z" style="fill:currentcolor;"/></symbol><symbol id="select" viewBox="0 0 512 512" xmlns="http://www.w3.org/2000/svg"><path d="M256 85.33a21.33 21.33 0 0 1 15.08 6.25l85.34 85.34a21.33 21.33 0 0 1-30.17 30.16l-70.25-70.25-70.25 70.25a21.33 21.33 0 0 1-30.17-30.16l85.34-85.34a21.33 21.33 0 0 1 15.08-6.25z m-100.42 219.59a21.33 21.33 0 0 1 30.17 0l70.25 70.25 70.25-70.25a21.33 21.33 0 0 1 30.17 30.16l-85.34 85.34a21.33 21.33 0 0 1-30.16 0l-85.34-85.34a21.33 21.33 0 0 1 0-30.16z" style="fill:currentcolor;stroke:currentcolor;"/></symbol><symbol id="skeleton" viewBox="0 0 512 512" xmlns="http://www.w3.org/2000/svg"><path d="M450.3 88h-388.6c-16.4 0-29.7 13.3-29.7 29.7v276.6c0 16.4 13.3 29.7 29.7 29.7h388.6c16.4 0 29.7-13.3 29.7-29.7v-276.6c0-16.4-13.3-29.7-29.7-29.7z m-355.9 117.3c-15.5 0-28-12.5-28-28s12.5-28 28-28c15.5 0 28 12.5 28 28s-12.5 28-28 28z m157.2 123.9c0 7-5.7 12.8-12.8 12.8h-75c-7.1 0-12.8-5.7-12.8-12.8v-10c0-7.1 5.7-12.8 12.8-12.8h75c7.1 0 12.8 5.7 12.8 12.8v10z m100.5-73.6c0.1 7.1-5.7 12.8-12.7 12.8h-175.6c-7.1 0-12.8-5.7-12.8-12.8v-10c0-7.1 5.7-12.8 12.8-12.8h175.5c7.1 0 12.8 5.7 12.8 12.8v10z m98.7-73.6c0 7.1-5.7 12.8-12.8 12.8h-274.2c-7.1 0-12.8-5.7-12.8-12.8v-10c0-7.1 5.7-12.8 12.8-12.8h274.2c7.1 0 12.8 5.7 12.8 12.8v10z" style="fill:currentcolor;"/></symbol><symbol id="slider" viewBox="0 0 512 512" xmlns="http://www.w3.org/2000/svg"><path d="M181.33 74.67a74.54 74.54 0 0 0-71.19 53.33h-46.14a21.33 21.33 0 0 0 0 42.67h46.14a74.52 74.52 0 1 0 71.19-96z m0 106.66a32 32 0 1 1 32-32 32 32 0 0 1-32 32z m117.34-32a21.33 21.33 0 0 1 21.33-21.33h128a21.33 21.33 0 0 1 0 42.67h-128a21.33 21.33 0 0 1-21.33-21.34z m149.33 192h-46.14a74.67 74.67 0 1 0 0 42.67h46.14a21.33 21.33 0 0 0 0-42.67z m-117.33 53.34a32 32 0 1 1 32-32 32 32 0 0 1-32 32z m-117.34-32a21.33 21.33 0 0 1-21.33 21.33h-128a21.33 21.33 0 0 1 0-42.67h128a21.33 21.33 0 0 1 21.33 21.34z" style="fill:currentcolor;stroke:currentcolor;"/></symbol><symbol id="space" viewBox="0 0 512 512" xmlns="http://www.w3.org/2000/svg"><path d="M245.76 83.2h20.48c4.86 0 8.96 4.1 8.96 8.96v20.48c0 4.86-4.1 8.96-8.96 8.96h-20.48c-4.86 0-8.96-4.1-8.96-8.96l0-20.48c0-4.86 4.1-8.96 8.96-8.96z M245.76 160h20.48c4.86 0 8.96 4.1 8.96 8.96v20.48c0 4.86-4.1 8.96-8.96 8.96h-20.48c-4.86 0-8.96-4.1-8.96-8.96l0-20.48c0-4.86 4.1-8.96 8.96-8.96z M245.76 313.6h20.48c4.86 0 8.96 4.1 8.96 8.96v20.48c0 4.86-4.1 8.96-8.96 8.96h-20.48c-4.86 0-8.96-4.1-8.96-8.96l0-20.48c0-4.86 4.1-8.96 8.96-8.96z M245.76 390.4h20.48c4.86 0 8.96 4.1 8.96 8.96v20.48c0 4.86-4.1 8.96-8.96 8.96h-20.48c-4.86 0-8.96-4.1-8.96-8.96l0-20.48c0-4.86 4.1-8.96 8.96-8.96z M231.17 269.57l-140.55 100.09c-11.26 7.94-26.62 0-26.62-13.82v-199.94c0-13.57 15.36-21.76 26.62-13.82l140.55 100.1c9.47 6.66 9.47 20.74 0 27.39z M279.81 269.57l140.54 100.09c11.26 7.94 26.62 0 26.63-13.82v-199.94c0-13.82-15.36-21.76-26.63-13.82l-140.54 100.1c-9.47 6.66-9.47 20.74 0 27.39z" style="fill:currentcolor;"/></symbol><symbol id="spin" viewBox="0 0 512 512" xmlns="http://www.w3.org/2000/svg"><path d="M256 42.67c117.82 0 213.33 95.51 213.33 213.33s-95.51 213.33-213.33 213.33-213.33-95.51-213.33-213.33 95.51-213.33 213.33-213.33z m0 64a149.33 149.33 0 1 0 0 298.66 149.33 149.33 0 0 0 0-298.66z M406.85 406.85c83.31-83.31 83.31-218.39 0-301.7-83.31-83.31-218.39-83.31-301.7 0a32 32 0 0 0 45.25 45.25 149.33 149.33 0 1 1 211.2 211.2 32 32 0 0 0 45.25 45.25z" style="fill:currentcolor;stroke:currentcolor;"/></symbol><symbol id="ssr" viewBox="0 0 512 512" xmlns="http://www.w3.org/2000/svg"><path d="M340.75 344.49c5.91-20.7 9.82-44.75 11.31-67.84a4.41 4.41 0 0 0-4.46-4.65h-71.06a4.43 4.43 0 0 0-4.47 4.39v55.3a4.44 4.44 0 0 0 4.14 4.38 273.51 273.51 0 0 1 59 11.39 4.45 4.45 0 0 0 5.54-2.97z M323.58 377.31a260.05 260.05 0 0 0-46.6-9.09 4.42 4.42 0 0 0-4.91 4.29v65.24a4.47 4.47 0 0 0 6.76 3.7c15.9-9.27 29-24.84 40.84-45.43 1.94-3.36 4.89-9.15 6.67-12.69a4.29 4.29 0 0 0-2.76-6.02z M235.29 368.4a256.85 256.85 0 0 0-46.56 8.82c-2.64 0.76-3.75 4.4-2.55 6.79 1.79 3.56 4 8.11 5.89 11.51 13 23 26.84 37.5 41.24 45.93a4.47 4.47 0 0 0 6.76-3.7v-65.27a4.16 4.16 0 0 0-4.78-4.08z M235.6 272h-71.06a4.41 4.41 0 0 0-4.46 4.64c1.48 23.06 5.37 47.16 11.26 67.84a4.46 4.46 0 0 0 5.59 3 272.2 272.2 0 0 1 59-11.36 4.44 4.44 0 0 0 4.15-4.38v-55.34a4.43 4.43 0 0 0-4.48-4.4z M277 143.78a235.8 235.8 0 0 0 46.5-9.14 4.3 4.3 0 0 0 2.76-6c-1.79-3.57-4.27-8.68-6.17-12.09-12.29-22-26.14-37.35-41.24-46a4.48 4.48 0 0 0-6.76 3.7v65.23a4.43 4.43 0 0 0 4.91 4.3z M276.54 240h71.06a4.39 4.39 0 0 0 4.46-4.58c-1.48-22.77-5.27-47.8-11.16-68.22a4.46 4.46 0 0 0-5.59-2.95c-19 5.74-38.79 10.43-59.09 12a4.4 4.4 0 0 0-4.15 4.32v55.11a4.4 4.4 0 0 0 4.47 4.32z M233.31 70.56c-15.42 8.57-29.17 24.43-41.47 46.37-1.91 3.41-4.19 8.11-6 11.67a4.31 4.31 0 0 0 2.76 6 225.42 225.42 0 0 0 46.54 9.17 4.43 4.43 0 0 0 4.91-4.29v-65.22a4.49 4.49 0 0 0-6.74-3.7z M235.92 176.26c-20.3-1.55-40.11-6.24-59.09-12a4.46 4.46 0 0 0-5.59 2.95c-5.89 20.42-9.68 45.45-11.16 68.22a4.39 4.39 0 0 0 4.46 4.58h71.06a4.4 4.4 0 0 0 4.47-4.34v-55.09a4.4 4.4 0 0 0-4.15-4.32z M414.39 97.61a224 224 0 1 0-316.78 316.78 224 224 0 1 0 316.78-316.78z m-237.79 333.24a219.08 219.08 0 0 1-12.48-19.66c-2-3.69-4.84-9.26-6.73-13.13a7.29 7.29 0 0 0-10.31-3.16c-4.3 2.41-10 5.72-14.13 8.43a147.29 147.29 0 0 1-23.57-22.43 248.83 248.83 0 0 1 30.41-18.36c1.86-1 2.77-2.14 2.18-4.18a374.8 374.8 0 0 1-14.09-82.17 4.36 4.36 0 0 0-4.3-4.17h-56.74a2 2 0 0 1-2-1.7 98.28 98.28 0 0 1-0.84-14.32 96.27 96.27 0 0 1 0.86-14.29 2 2 0 0 1 2-1.7h56.74c2.29 0 4.17-1.32 4.29-3.63a372.71 372.71 0 0 1 14-81.83 4.36 4.36 0 0 0-2.19-5.11 260.63 260.63 0 0 1-29.84-17.9 169.82 169.82 0 0 1 23.14-22.8c4.08 2.68 9.4 5.71 13.66 8.11a7.89 7.89 0 0 0 11-3.42c1.88-3.87 4-8.18 6.06-11.88a221.93 221.93 0 0 1 12.54-19.91 185 185 0 0 1 79.74-17.64c28.94 0 55.9 7 80.53 18.46a202.23 202.23 0 0 1 12 19c2.59 4.66 5.34 10.37 7.66 15.32a4.29 4.29 0 0 0 5.92 1.94c5.38-2.91 11.21-6.26 16.34-9.63a171.36 171.36 0 0 1 23.2 23 244.89 244.89 0 0 1-29.06 17.31 4.35 4.35 0 0 0-2.18 5.12 348.68 348.68 0 0 1 13.85 81.4 4.33 4.33 0 0 0 4.3 4.12l56.62-0.07a2 2 0 0 1 2 1.7 117.46 117.46 0 0 1 0 28.62 2 2 0 0 1-2 1.72l-56.67 0a4.35 4.35 0 0 0-4.3 4.17 367.4 367.4 0 0 1-13.87 81.3 4.45 4.45 0 0 0 2.19 5.19c5 2.59 10.57 5.48 15.37 8.42s9.55 6.08 14.13 9.34a172.73 172.73 0 0 1-23 22.93c-2.44-1.61-5.34-3.44-7.84-4.94-1.72-1-4.89-2.77-6.65-3.76-3.82-2.14-7.88-0.54-9.79 3.4s-4.83 9.59-6.87 13.25a212.42 212.42 0 0 1-12.35 19.53c-24.62 11.53-50.59 17.16-79.53 17.16s-54.77-5.63-79.4-17.15z" style="fill:currentcolor;"/></symbol><symbol id="start" viewBox="0 0 512 512" xmlns="http://www.w3.org/2000/svg"><path d="M464 256c0-114.87-93.13-208-208-208s-208 93.13-208 208 93.13 208 208 208 208-93.13 208-208z m-252 74.14v-148.28a16 16 0 0 1 26.23-12.29l89.09 74.13a16 16 0 0 1 0 24.6l-89.09 74.13a16 16 0 0 1-26.23-12.29z" style="fill:currentcolor;"/></symbol><symbol id="switch" viewBox="0 0 512 512" xmlns="http://www.w3.org/2000/svg"><path d="M335.84 124.04h-159.68c-72.84 0-131.96 59.12-131.95 131.96s59.12 131.96 131.95 131.96h159.81c72.84 0 131.96-59.12 131.96-131.96s-59.12-131.96-132.09-131.96z m0 228.69h-159.68c-53.44 0-96.73-43.28-96.72-96.73s43.28-96.73 96.72-96.73h159.81c53.44 0 96.73 43.28 96.72 96.73s-43.41 96.73-96.85 96.73z M328.84 195.83c-35.23-0.13-63.87 28.11-64 63.34s28.11 63.87 63.34 64 63.87-28.11 64-63.34c0-0.26 0-0.53 0-0.66-0.13-34.84-28.5-63.21-63.34-63.34z" style="fill:currentcolor;"/></symbol><symbol id="table" viewBox="0 0 512 512" xmlns="http://www.w3.org/2000/svg"><path d="M164.57 393.14v-54.85c0-5.14-4-9.14-9.14-9.15h-91.43c-5.14 0-9.14 4-9.14 9.15v54.85c0 5.14 4 9.14 9.14 9.15h91.43c5.14 0 9.14-4 9.14-9.15z m0-109.71v-54.86c0-5.14-4-9.14-9.14-9.14h-91.43c-5.14 0-9.14 4-9.14 9.14v54.86c0 5.14 4 9.14 9.14 9.14h91.43c5.14 0 9.14-4 9.14-9.14z m146.29 109.71v-54.85c0-5.14-4-9.14-9.15-9.15h-91.42c-5.14 0-9.14 4-9.15 9.15v54.85c0 5.14 4 9.14 9.15 9.15h91.42c5.14 0 9.14-4 9.15-9.15z m-146.29-219.43v-54.85c0-5.14-4-9.14-9.14-9.15h-91.43c-5.14 0-9.14 4-9.14 9.15v54.85c0 5.14 4 9.14 9.14 9.15h91.43c5.14 0 9.14-4 9.14-9.15z m146.29 109.72v-54.86c0-5.14-4-9.14-9.15-9.14h-91.42c-5.14 0-9.14 4-9.15 9.14v54.86c0 5.14 4 9.14 9.15 9.14h91.42c5.14 0 9.14-4 9.15-9.14z m146.28 109.71v-54.85c0-5.14-4-9.14-9.14-9.15h-91.43c-5.14 0-9.14 4-9.14 9.15v54.85c0 5.14 4 9.14 9.14 9.15h91.43c5.14 0 9.14-4 9.14-9.15z m-146.28-219.43v-54.85c0-5.14-4-9.14-9.15-9.15h-91.42c-5.14 0-9.14 4-9.15 9.15v54.85c0 5.14 4 9.14 9.15 9.15h91.42c5.14 0 9.14-4 9.15-9.15z m146.28 109.72v-54.86c0-5.14-4-9.14-9.14-9.14h-91.43c-5.14 0-9.14 4-9.14 9.14v54.86c0 5.14 4 9.14 9.14 9.14h91.43c5.14 0 9.14-4 9.14-9.14z m0-109.72v-54.85c0-5.14-4-9.14-9.14-9.15h-91.43c-5.14 0-9.14 4-9.14 9.15v54.85c0 5.14 4 9.14 9.14 9.15h91.43c5.14 0 9.14-4 9.14-9.15z m36.57-91.42v310.85c0 25.14-20.57 45.71-45.71 45.72h-384a45.84 45.84 0 0 1-45.71-45.72v-310.85c0-25.14 20.57-45.71 45.71-45.72h384c25.14 0 45.71 20.57 45.71 45.72z" style="fill:currentcolor;stroke:currentcolor;"/></symbol><symbol id="tabs" viewBox="0 0 512 512" xmlns="http://www.w3.org/2000/svg"><path d="M313.09 124.93h-82.69c-12.29 0-22.02-9.98-22.02-22.02v-14.85c0-12.29 9.98-22.02 22.02-22.01h82.69c12.29 0 22.02 9.98 22.01 22.01v14.85c0 12.29-9.98 22.02-22.01 22.02z M476.16 167.68l-1.02 253.95c0 13.31-11.01 24.06-24.32 24.07h-398.6c-13.82 0-25.09-11.26-25.08-25.09v-327.43c0-15.1 12.03-27.14 27.13-27.13h112.64c13.31 0 24.32 10.75 24.32 24.32l0.26 28.67c0 13.31 11.01 24.32 24.32 24.32l236.03 0c13.57 0 24.32 10.75 24.32 24.32z M455.68 124.93h-85.76c-11.26 0-20.48-9.22-20.48-20.48v-17.92c0-11.26 9.22-20.48 20.48-20.48h85.76c11.26 0 20.48 9.22 20.48 20.48v17.92c0 11.52-9.22 20.48-20.48 20.48z" style="fill:currentcolor;"/></symbol><symbol id="tag" viewBox="0 0 512 512" xmlns="http://www.w3.org/2000/svg"><path d="M467 45.2a44.45 44.45 0 0 0-31.71-13.2h-122.93a30.63 30.63 0 0 0-21.52 8.89l-245.75 245.7a44.82 44.82 0 0 0 0 63.32l117 117a44.83 44.83 0 0 0 63.34 0l245.65-245.6a30.6 30.6 0 0 0 8.92-21.51v-123a44.24 44.24 0 0 0-13-31.6z m-83 114.8a32 32 0 1 1 32-32 32 32 0 0 1-32 32z" style="fill:currentcolor;"/></symbol><symbol id="theme" viewBox="0 0 512 512" xmlns="http://www.w3.org/2000/svg"><path d="M256 96c33.08 0 60.71-25.78 64-58 0.3-3-3-6-6-6h0a13 13 0 0 0-4.74 0.9c-0.2 0.08-21.1 8.1-53.26 8.1s-53.1-8-53.26-8.1a16.21 16.21 0 0 0-5.3-0.9h-0.06a5.69 5.69 0 0 0-5.38 6c3.35 32.16 31 58 64 58z M485.29 89.9l-129.29-45.26a4 4 0 0 0-5.27 3.16 96 96 0 0 1-189.38 0 4 4 0 0 0-5.35-3.16l-129.29 45.26a16 16 0 0 0-10.43 18.1l16.63 88a16 16 0 0 0 13.92 12.9l48.88 5.52a8 8 0 0 1 7.1 8.19l-7.33 240.9a16 16 0 0 0 9.1 14.94 17.49 17.49 0 0 0 7.42 1.55h288a17.49 17.49 0 0 0 7.42-1.55 16 16 0 0 0 9.1-14.94l-7.33-240.9a8 8 0 0 1 7.1-8.19l48.88-5.52a16 16 0 0 0 13.92-12.9l16.63-88a16 16 0 0 0-10.43-18.1z" style="fill:currentcolor;"/></symbol><symbol id="timeline" viewBox="0 0 512 512" xmlns="http://www.w3.org/2000/svg"><path d="M69 286.9v-61.8c24.1-6.05 42-27.9 42-53.85 0-25.95-17.9-47.8-42-53.85v-83.35c0-7.45-6.05-13.5-13.5-13.5s-13.5 6.05-13.5 13.5v83.35c-24.1 6.05-42 27.9-42 53.85 0 25.95 17.9 47.8 42 53.85v61.85c-24.1 6-42 27.85-42 53.8s17.9 47.8 42 53.85v83.35c0 7.45 6.05 13.5 13.5 13.5s13.5-6.05 13.5-13.5v-83.35c24.1-6.05 42-27.9 42-53.85s-17.9-47.8-42-53.85z m-39-115.65c0-14.05 11.45-25.5 25.5-25.5s25.5 11.45 25.5 25.5-11.45 25.5-25.5 25.5-25.5-11.45-25.5-25.5z m25.5 195c-14.05 0-25.5-11.45-25.5-25.5s11.45-25.5 25.5-25.5 25.5 11.45 25.5 25.5-11.45 25.5-25.5 25.5z m415.5-224.75h-295c-8.3 0-15-6.7-15-15s6.7-15 15-15h295c8.3 0 15 6.7 15 15s-6.7 15-15 15z m-85.3 87h-211.9c-7.1 0-12.8-5.75-12.8-12.8v-4.35c0-7.1 5.75-12.8 12.8-12.8h211.85c7.1 0 12.8 5.75 12.8 12.8v4.35c0.05 7.05-5.7 12.8-12.75 12.8z M471 312.5h-295c-8.3 0-15-6.7-15-15s6.7-15 15-15h295c8.3 0 15 6.7 15 15s-6.7 15-15 15z m-85.3 87h-211.9c-7.1 0-12.8-5.75-12.8-12.8v-4.35c0-7.1 5.75-12.8 12.8-12.8h211.85c7.1 0 12.8 5.75 12.8 12.8v4.35c0.05 7.05-5.7 12.8-12.75 12.8z" style="fill:currentcolor;stroke:currentcolor;"/></symbol><symbol id="tooltip" viewBox="0 0 512 512" xmlns="http://www.w3.org/2000/svg"><path d="M408 48h-304c-39.7 0-72 32.3-72 72v192c0 39.7 32.3 72 72 72h24 70c7.2 0 14 3.6 18 9.6l21.2 31.7c8.8 13.1 28.1 12.7 36.4-0.7l18-29.3c3.9-6.3 10.7-10.2 18.2-10.3 23.6-0.3 76.1-0.9 98.2-0.9 4.8 0 30.3-0.5 50.9-21.1 13-13 21.1-31 21.1-50.9v-192.1c0-39.7-32.3-72-72-72z m-248 200c-17.7 0-32-14.3-32-32s14.3-32 32-32 32 14.3 32 32-14.3 32-32 32z m96 0c-17.7 0-32-14.3-32-32s14.3-32 32-32 32 14.3 32 32-14.3 32-32 32z m96 0c-17.7 0-32-14.3-32-32s14.3-32 32-32 32 14.3 32 32-14.3 32-32 32z" style="fill:currentcolor;"/></symbol><symbol id="tree" viewBox="0 0 512 512" xmlns="http://www.w3.org/2000/svg"><path d="M338.94 303.36c-16.9 0-32.26-8.96-40.7-23.55h-101.38v94.72h101.38c8.45-14.59 23.81-23.55 40.7-23.55 26.11 0 47.36 21.25 47.36 47.36 0 26.11-21.25 47.36-47.36 47.36-16.9 0-32.26-8.96-40.7-23.56h-125.18c-13.06 0-23.55-10.5-23.56-23.55v-243.2c-22.53-13.06-30.46-41.98-17.4-64.77s41.98-30.72 64.76-17.66 30.46 41.98 17.41 64.77c-4.1 7.17-10.24 13.06-17.41 17.41v77.56h101.38c8.45-14.59 23.81-23.55 40.7-23.55 26.11 0 47.36 21.25 47.36 47.36s-21.25 46.85-47.36 46.85z" style="fill:currentcolor;"/></symbol><symbol id="upload" viewBox="0 0 512 512" xmlns="http://www.w3.org/2000/svg"><path d="M473.66 210c-14-10.38-31.2-18-49.36-22.11a16.11 16.11 0 0 1-12.19-12.22c-7.8-34.75-24.59-64.55-49.27-87.13-28.69-26.29-66.63-40.75-106.84-40.75-35.35 0-68 11.08-94.37 32.05a150.07 150.07 0 0 0-42.06 53 16 16 0 0 1-11.31 8.87c-26.75 5.4-50.9 16.87-69.34 33.12-25.46 22.5-38.92 52.41-38.92 86.56 0 34.52 14.49 66 40.79 88.76 25.12 21.69 58.94 33.64 95.21 33.64h104v-153.37l-36.69 36.69a16 16 0 0 1-23.16-0.56c-5.8-6.37-5.24-16.3 0.85-22.39l63.69-63.68a16 16 0 0 1 22.62 0l63.69 63.66c6.28 6.29 6.64 16.6 0.39 22.91a16 16 0 0 1-22.68 0.06l-36.71-36.69v153.37h124c31.34 0 59.91-8.8 80.45-24.77 23.26-18.1 35.55-44 35.55-74.83 0-29.94-13.26-55.61-38.34-74.19z M240 448.21a16 16 0 1 0 32 0v-64.42h-32z" style="fill:currentcolor;"/></symbol><symbol id="vue" viewBox="0 0 512 512" xmlns="http://www.w3.org/2000/svg"><path d="M256 144.03l-55.49-96.11-79.43 0 134.92 233.69 134.92-233.69-79.43 0-55.49 96.11z M409.4 47.92l-153.4 265.69-153.4-265.69-86.86 0 240.26 416.16 240.26-416.16-86.86 0z" style="fill:currentcolor;"/></symbol></svg>